<svg version="1" xmlns="http://www.w3.org/2000/svg" width="933.333" height="933.333" viewBox="0 0 700.000000 700.000000"><path d="M1.5 176.7c.7 2.7 5.7 19.4 11 37.3 12.8 43 14.6 49.2 15.1 51 .4 1.8 11 37.3 12.3 41.5.9 2.6 8.7 28.8 17.1 57.5 1.6 5.2 6.1 20.3 10 33.5 4 13.2 9.6 32.1 12.5 42 6.9 23.6 15.3 52 21.3 72.5l4.9 16.5h21.5l2.8-9c4.8-15.4 18.7-59.4 23-73 2.3-7.2 5.2-16.4 6.4-20.5 2.4-7.6 17.4-55.4 29.2-93 3.6-11.3 7.1-22.3 7.9-24.5.7-2.2 2.2-6.9 3.3-10.5 1.1-3.6 5-16.1 8.7-27.9 3.7-11.8 6.8-22.1 7.1-23 .2-.9 1.2-5.7 2.3-10.6 1-5 2-8.3 2.1-7.5.1.8.3 2.6.5 4 .9 9.8 2.6 16.2 13.5 53 4.3 14.6 11.3 38.2 15.5 52.5 4.2 14.3 8.7 29.6 10 34 4 13.2 16 53.8 21.5 72.5 2.9 9.6 6.5 22 8.1 27.5 1.7 5.5 3.2 10.7 3.4 11.5.2.8 2 6.9 4 13.5s4.9 16.3 6.4 21.5l2.8 9.5 10.5.3 10.6.3 1.6-4.8c.8-2.6 5.4-18.3 10.1-34.8 4.7-16.5 9.7-33.6 11-38 1.3-4.4 7.6-25.6 13.8-47 6.3-21.5 12.3-41.7 13.2-45 1-3.3 1.9-6.5 2.1-7 .1-.6 2.5-8.9 5.4-18.5 2.8-9.6 5.4-18.4 5.7-19.5.5-1.9 9.3-32.1 13.3-45.5 6.5-21.8 11.1-37.7 11.4-39 .2-.8 3.4-11.6 7.1-24 3.6-12.4 6.8-23.2 7-24 .2-.8.9-3.1 1.4-5 .6-1.9 1.1-3.8 1.1-4.2 0-.5-6.1-.8-13.5-.8s-13.5.2-13.5.5c0 .2-3.9 14.3-8.6 31.2-4.7 17-9.8 35.5-11.4 41.3-8.5 30.9-24.2 87.4-26 93-1.1 3.6-3.4 11.7-5 18-1.7 6.3-5.1 18.5-7.5 27-2.5 8.5-4.6 16.6-4.9 18-.3 1.4-1.4 5.9-2.6 10-1.2 4.1-2.3 8.2-2.5 9-.2.8-1.9 6.9-3.8 13.5-10 35.2-14.7 52.5-14.8 54.1 0 1.8-.1 1.8-.9-.1-.4-1.1-1.8-6.3-3-11.5s-7.7-29.1-14.5-53-17.9-62.9-24.6-86.5c-6.7-23.7-12.5-44.4-12.9-46-.5-1.7-4.3-15.2-8.5-30-4.2-14.9-7.8-27.7-8-28.5-.2-.8-2.9-10.3-6-21s-5.8-20.2-6-21c-3.2-12.2-4.5-16.4-5.3-17.2-.5-.5-3.5-.8-6.8-.6l-5.8.3-3.9 12.5c-4 13.2-9.5 30.9-17.1 55-8.5 27.3-20.8 67.5-21.6 70.5-.4 1.6-3.1 10.4-6 19.5-2.8 9.1-6.9 22.1-9 29-2.1 6.9-10.4 33.9-18.5 60-13.3 42.9-18 58.6-20 67.5-.6 2.5-1.5-.1-5-14-2.3-9.4-5.9-22.4-8-29-2-6.6-3.8-12.7-4-13.5-.2-.8-3.9-14.3-8.4-30-9.8-34.7-10.4-36.7-13-45.5-3-10.3-16.2-56.8-16.6-58.5-.2-.8-1.3-4.7-2.5-8.5-1.2-3.9-2.3-7.8-2.5-8.8-.2-1-6.6-23.3-14.1-49.5S30.2 179.5 29.6 177l-1.2-4.5-14.2-.3-14.1-.3 1.4 4.8zM489 350.4V529h25v-3.8c0-2 .1-37.7.3-79.2l.2-75.5h26c31.5.1 36.6.8 48 6.8 14.2 7.6 25.5 23.9 41.9 60.7 1.6 3.6 4.5 9.9 6.4 14 1.8 4.1 6.5 14.5 10.4 23 10.7 23.6 11.8 26.1 14.3 31.5 1.3 2.7 4.2 8.9 6.4 13.7l4 8.8h14c7.8 0 14.1-.2 14.1-.4s-5.6-12.4-12.6-27.2c-6.9-14.8-13.1-28.3-13.9-29.9-.7-1.7-4.1-8.9-7.5-16-3.4-7.2-8.4-18-11.2-24-9.3-20.4-15.9-32.9-22.3-42.6-6.9-10.3-16.8-20.4-23.1-23.4l-3.9-1.9 5-1.3c9.9-2.5 21.1-6.5 28-10 27.4-13.7 45-37.9 50-68.5 1.3-7.8 1.4-32.3.2-37.4-4.3-17.8-6.9-24.4-13.8-34.5-13.5-20.1-35.2-33.4-60.9-37.5-1.9-.3-5.1-.9-7.1-1.3-2-.5-29.3-.9-60.7-1l-57.2-.2v178.5zm111.5-153.8c9 1.5 23.2 5.2 23.9 6.3.2.3-.8.7-2.2.8-5.3.5-10.2 1.5-10.2 2.2 0 .4 1.1 1.8 2.5 3.1l2.4 2.3 2-2.4c1.4-1.7 1.6-2.6.8-3.2-.7-.4.1-.5 1.7-.3 1.6.3 3.6.1 4.6-.4 2.3-1.2 12.7 5.6 19.8 13 6.6 6.8 8 9 5.1 8.3-1.1-.3-2.8.2-3.9 1.2-1.8 1.6-2.5 1.4-2.1-.8 0-.4-.4-.7-.9-.7-.6 0-1 .8-1 1.9 0 1.2-.7 1.8-1.7 1.7-1.1 0-1.7.5-1.5 1.3.2.9-.4 1.2-1.8.8-1.1-.3-2-.1-2 .4 0 1.7-1.8.9-2.3-1-.6-2.5.1-3.3 2.2-2.1 1 .5 2.3.5 3.1 0 1.3-.8 1.2-1.2-.5-2.4-1.1-.8-3.3-1.7-4.9-2-1.6-.3-3.4-1.3-4-2.1-.9-1.2-1.8-1.2-5.5-.2-5.8 1.6-17.8 13-17.3 16.4.4 2.8 1.8 2.9 4.5.5 1.1-.9 1.7-1.2 1.4-.5-1.1 1.7 1.3 6.2 2.9 5.6.8-.3 1.4-1.4 1.4-2.4s.5-1.9 1-1.9c.6 0 .8-1 .5-2.3-.6-2.6 3.5-7.7 6.2-7.7 1.6.1 1.5.3-.5 2-1.5 1.2-2.2 2.8-2 4.2.3 2 .8 2.2 3.7 2 2-.2 3.1 0 2.7.6-.3.6-1.5.8-2.6.5-1.8-.5-2-.2-1.6 2.2.4 2.1.2 2.4-.8 1.6-1-.9-1.5-.7-1.9.9-.5 1.9-1 2.1-8.2 2.4-1.2 0-2.2-.8-2.6-2.4-.7-2.5-1.1-2.1-1.3 1.5-.1 1.1-.7 2-1.4 2-1.6 0-3.3 2.6-2.5 3.9.3.5.1.6-.4.3-.6-.4-2.5-.1-4.3.6-2.6 1.2-2.9 1.5-1.6 2.6.8.7 1.4 2 1.3 3-.1 1.5-.8 1.7-3.4 1.4-1.8-.3-3.3-.1-3.4.4 0 .4-.2 1.8-.5 2.9-.2 1.2.3 2.7 1.1 3.4 1.8 1.5 6.5.5 6.5-1.3 0-1.6 3.4-4.5 6.7-5.8 1.9-.7 2.8-.6 3.7.5 1.3 1.6 6.6 5.1 6.6 4.3 0-.4-1.1-1.8-2.6-3.2-3.6-3.6-1.9-5.4 1.9-1.8 1.6 1.5 2.7 2.2 2.3 1.5-.4-.6-.2-1.2.4-1.2.6 0 1 .8.9 1.7-.4 2.4 1.1 6.4 2 5.9 1-.6.8-3.7-.4-5.6-.7-1.2-.6-1.3.7-.3.8.7 1.7 1 2 .7.3-.3 1.1.9 1.7 2.7 1 2.9 1.3 3.1 5.1 2.7 3.6-.3 3.9-.1 3.8 1.9-.2 1.3-.6 2.3-1.1 2.3-.4 0-.6.4-.2 1 .3.5-1.5.8-4.5.7-2.7 0-5-.4-5-.7 0-1.3-3.9-.7-4.4.7-.6 1.3-.9 1.4-2.9 0-1.3-.8-3.2-1.6-4.2-1.9-1.1-.2-2.1-.9-2.1-1.6-.1-.6-.2-1.6-.3-2.2-.1-1-5.5-.5-9.6.8-1.1.3-2.7.6-3.6.7-1.9 0-4.9 2.3-4.9 3.7 0 .5-1.5 2.7-3.3 4.9-3.4 3.9-3.5 4.2-2.8 13.5.1.5 1.5 2.5 3.2 4.2 2.6 2.6 3.9 3.2 7.5 3.2 3.5 0 4.4-.4 4.4-1.8 0-1.2.2-1.4.8-.4.5.7 2.3 1.4 4 1.5 3.4.2 4.6 1.8 3.7 4.8-.4 1.1.2 2.6 1.3 3.7 2.3 2.3 3.5 8.5 2 10-1.3 1.3 0 6.7 3.3 13.9 1 2.3 1.9 4.7 1.9 5.3 0 .8 1.4 1 4.3.7 4.1-.5 4.1-.5-2.9 2.8-14.8 7.1-25.6 8.7-57.5 8.9l-21.7.1v-2.3c0-1.2.7-2.2 1.4-2.2.8 0 1.4-.5 1.4-1 0-.6.6-1 1.3-1 2.4 0 3.7-2.1 2.6-4.3-.9-1.7-.8-1.8.7-.9 1.5.8 2.3.5 4.2-1.6 1.3-1.4 2.8-3.7 3.4-5.2.5-1.5 2.3-3.4 4.3-4.3 3.2-1.5 4.2-3.1 4.9-8 .1-.9 1-2.5 2-3.6 2.9-3.2 1.6-5.3-4.6-7.7-3.1-1.2-5.9-2-6.2-1.7-.2.3-1.2-.9-2-2.6-1-1.8-2.7-3.3-4.3-3.7-1.5-.4-3.6-1.6-4.7-2.6s-2.9-1.8-4-1.8c-1.2 0-3.2-.3-4.5-.7-1.9-.5-2.2-.3-1.6.8.7 1.1.5 1.1-.9-.1-1.6-1.3-2-1.2-3.1.3-.6.9-1.5 1.4-1.9 1-.3-.4-.3.8 0 2.5.4 2.2.3 3.2-.5 3.2-.7 0-1 .4-.7.9.4.5.2 1.1-.3 1.3-3.5 1.2 1 13.2 6 16.2 2.5 1.5 2.7 2.1 2.3 6.2-.2 2.6-.7 5.1-1 5.5-.3.5.1.9.8.9.9 0 .9.3.2.8-1.3.9-2.5 5.3-2.7 10.7-.1 2.2-.5 4.2-.9 4.5-.5.4-13.3.5-17.5.1-1-.1-1.3-6.9-1.3-30.4 0-16.6.4-29.6.8-29 .4.7 1.9 1.4 3.2 1.5 1.4.2 3.3 1.5 4.2 3 1 1.6 1.9 2.8 2.1 2.8.7 0-.5-5.5-1.5-6.7-.5-.6-1.6-.9-2.4-.6-1.7.6-1.8-1-.4-3.8 1.3-2.3-.2-2.6-2.4-.4-2.8 2.8-3.7 1.7-3.5-4 .2-4.2.6-5.5 1.8-5.6.9 0 2.3-.2 3.1-.3 2.4-.5 6 1.2 6 2.9 0 .8.5 1.5 1 1.5 1.3 0 1.3-1.6 0-4-.8-1.6-.5-2.2 2-3.7 2-1.2 2.9-2.4 2.7-3.5-.3-1 1.1-3.1 3.7-5.4 2.2-2.1 4-4.1 3.9-4.5-.2-.5.4-.6 1.2-.3.8.4 1.2 1 .9 1.5-.8 1.3.7 1 3.6-.6l2.5-1.5-2.4.3c-1.8.1-2.6-.4-3-2.1l-.6-2.3-2.2 2.1c-1.3 1.1-2.3 1.6-2.3 1.1 0-1.7 4.8-4.4 6.6-3.7 1.4.6 7.4-1.8 7.4-3 0-.9-2.8-3.4-3.8-3.4-.5 0-1.5-1.4-2.2-3-1.3-3.3-2-3.6-3.7-1.9-1.3 1.3-3.3.4-3.3-1.6 0-1.4-2.1-2.6-5.6-3.2-1.8-.3-2.1.1-2 2.4.1 1.6.5 3.3.9 4 .4.6 0 1.8-.8 2.7-.9.9-1.5 2.3-1.3 3.2.5 2.8-2.1 2.7-2.8 0-.3-1.4-1.2-2.6-1.8-2.6-.7 0-3.1-.9-5.4-2-5.7-2.8-5.7-5.6.1-10.2 2.3-1.9 5-3.7 5.9-4.1 1.1-.4 1.5-1.4 1.2-3-.4-2.4.1-2.6 4.9-1.8.5 0 .6 1.1.3 2.3-.3 1.3-.3 1.7 0 1 .9-1.8 3.7-1.5 3 .4-.3.9-.6 2-.6 2.5s-1 .9-2.2 1c-1.8.1-1.6.3.9 1 1.8.5 3.5 1.4 3.8 1.9.3.6 1.3 1 2.1 1s1.3-.4 1-.9c-.4-.5.4-.7 1.6-.4l2.3.5-2.4-2.1c-2.6-2.3-2.2-4.2.4-2.1 1.1 1 1.9 1 2.7.2.8-.8.3-1.6-1.8-2.9-1.6-1-2.9-2.5-2.9-3.3 0-.8-.4-1.5-1-1.5-.5-.1-2.7-.9-4.7-1.9-2-1-4.1-1.5-4.7-1.2-.5.4-1.4-.1-1.9-1-.7-1.3-1.3-1.4-3-.5-1.2.7-2.2.7-2.4.1-.2-.5-.9-.6-1.7-.1-1.7 1.1-.5 5.1 1.5 5.1 1.6 0 1.9 3.5.5 4.5-.6.3-1.4-.3-2-1.2-.6-1-1.1-1.4-1.1-.8 0 .5-1-.5-2.1-2.4-2-3.3-2-3.5-.3-4.8 1.6-1.1 1.6-1.3.1-1.9-1-.3-1.7-1.6-1.7-2.7 0-1.9.1-1.9 1.3-.4.6.9 2.1 1.7 3.2 1.8 4.5.4 8.5-.2 8.5-1.2 0-.8-1.3-.9-3.9-.5-2.9.4-4.4.2-5.5-.9-.8-.8-1.9-1.5-2.5-1.5-.6 0-1.1-.7-1.1-1.5 0-.9.9-1.5 2.3-1.5 2.8 0 4.7-1.7 4-3.6-.4-1 .3-1.4 2.3-1.3 2.5.2 2.6.2.6.6-1.9.4-2.1.7-1.1 1.9.9 1.1.8 1.4-.7 1.4-1.4 0-1.6.2-.6.9 1.1.7 1.1.9-.2 1.4-3.1 1.2-1.5 2.5 3 2.5 2.5 0 4.3-.2 4.1-.5-.8-.7 5.4-6.3 6.9-6.3.8 0 1.4-.4 1.4-.9s1.9-1.8 4.2-3c4.9-2.4 3.8-3.2-4.9-3.4-6.4-.2-18.3 2.1-18.3 3.4 0 .5.5.9 1 .9.6 0 1 .5 1 1 0 .7-.6.7-1.9.1-1-.6-2.1-.7-2.5-.4-.3.3-.6-1.3-.6-3.6v-4.2l38.8.2c27.5.1 41.3.5 47.7 1.5zm17.5 30.8c0 .2-.8 1-1.7 1.7-1.6 1.3-1.7 1.2-.4-.4 1.3-1.6 2.1-2.1 2.1-1.3zm14.5 20.6c.3.5.1 1-.4 1-.6 0-1.1-.5-1.1-1 0-.6.2-1 .4-1 .3 0 .8.4 1.1 1zm-6.8 1.6c-.3.3-1.2.4-1.9.1-.8-.3-.5-.6.6-.6 1.1-.1 1.7.2 1.3.5zm-2.7 3.9c1.1 1.3 1 1.4-.4.9-.9-.3-1.6-1-1.6-1.5 0-1.3.6-1.1 2 .6zm-100.8 2c-.1 1.1-.3 2.8-.4 3.7-.4 3.1-1.8 2-1.8-1.3 0-2.3-.4-3-1.5-2.6-.8.4-1.7.2-2-.3-.3-.5.3-1.1 1.2-1.3 3.2-.9 4.8-.2 4.5 1.8zm87.8-2.1c0 .2-.8 1-1.7 1.7-1.6 1.3-1.7 1.2-.4-.4 1.3-1.6 2.1-2.1 2.1-1.3zm3 1.6c0 .5-.2 1-.4 1-.3 0-.8-.5-1.1-1-.3-.6-.1-1 .4-1 .6 0 1.1.4 1.1 1zm24.6.8c-.4 1.2.3 2.4 2.1 3.8 3.3 2.3 6.7 2.1 6-.5-.5-1.9 1-3.5 3.5-3.9 2.2-.3 3.2 1.4 1.2 2.2-2.2.8 0 3.6 3 3.7 1.7.1 1.7.2.4.6-1.1.3-1.8 1.4-1.8 2.9 0 1.3-.6 2.4-1.2 2.4-2.2 0-4.1-1.7-3.4-2.9 1.2-2-.3-3.1-2.9-2.1-1.3.5-2.6.6-2.9.2-.5-.9-10.6-.8-12.8.2-1.4.6-1.6.4-1.2-1.6.3-1.2.6-2.8.6-3.5.1-.7.5-1 .9-.7.4.2.9-.1 1.1-.7.3-.8.9-.6 2 .5 2 1.9 2.9 2.1 2.6.3-.2-.6.3-1.1 1-1 .6.2 1.2-.2 1.2-.7 0-.6.3-1 .6-1s.3.8 0 1.8zm-19.6.2c0 .5-.2 1-.4 1-.3 0-.8-.5-1.1-1-.3-.6-.1-1 .4-1 .6 0 1.1.4 1.1 1zm-91.4 1.1c.3.6 0 1.5-.7 2-1.2.7-1.1.9.1.9.9 0 2.6-.8 3.9-1.7 1.4-.9 2.1-1.1 1.7-.5-.4.7-2 1.9-3.6 2.7-2.9 1.5-3.7 1-4.6-3.3-.3-1.5 2.2-1.6 3.2-.1zm129 20.6c2.4.6 5.3.9 6.3.6 1.7-.4 1.9-.1 1.5 2.9-1.1 7.1-4.6 18.2-7.8 24.6-3.5 6.9-7.6 12.5-7.6 10.3 0-.8-.9-.6-2.5.6-1.4 1-2.5 2.8-2.5 4.1 0 2.6-3.8 6.6-10.9 11.5l-4.6 3.1 2.3-2.8c1.2-1.6 2.2-3.5 2.2-4.3 0-.7.7-1.6 1.6-2 1-.4 1.4-1.3 1-2.9-.5-1.7.1-2.8 2.4-4.4 1.7-1.2 2.8-2.5 2.5-3-1.3-2.1-1.6-9.2-.5-10.5.6-.7 1-2.4.8-3.6-.2-1.6.4-2.7 1.8-3.4 2.5-1.3 5.4-4 5.4-5.3 0-.4-1.4-.6-3.1-.4-2 .3-2.9.1-2.6-.5.8-1.3-2.7-4.6-3.7-3.6-.4.4-.4-.1 0-1.1.5-1.3.4-1.7-.4-1.2s-1 .2-.6-.9c.4-.9-.2-2.5-1.1-3.5-1-1.1-1.5-2-1.1-2 .3 0-.1-1.1-1-2.5-1.3-2-1.4-2.5-.2-2.5s7.5 9.8 9.1 14.3c.6 1.5 1 1.6 2.9.6 1.3-.7 2.5-1.2 2.8-1.2 1.3 0 8.2-4.9 8.7-6.3.7-2 0-2.6-3.9-2.9-5.1-.4-5.2-.5-4.5-1.1.3-.4 0-1.3-.8-2.1s-1.5-2.1-1.5-2.9c0-1 .7-.7 2.6.9 1.4 1.2 4.5 2.7 7 3.4zm-61.9-.5c-.3.8-.6.5-.6-.6-.1-1.1.2-1.7.5-1.3.3.3.4 1.2.1 1.9zm-3 13.4c-.3.3-1.2.4-1.9.1-.8-.3-.5-.6.6-.6 1.1-.1 1.7.2 1.3.5zm25 2.6c-.3.8-.6.5-.6-.6-.1-1.1.2-1.7.5-1.3.3.3.4 1.2.1 1.9zm-70.3 4.6c.3.5-.1.9-.9.9s-1.2-.4-.9-.9c.3-.4.7-.8.9-.8.2 0 .6.4.9.8zm-4.4 3.7c0 .2-.9.3-1.9.2-1.1 0-1.8-.5-1.5-.9.4-.6 3.4 0 3.4.7zm92.8 1.7c-.6 1.7-4.5 2.9-4.5 1.3 0-.7.6-1.1 1.4-.8.7.3 1.3 0 1.3-.6s.5-1.1 1.1-1.1c.6 0 .9.5.7 1.2zm-3.5 5.3c.4.8.1 1.7-.6 2.1-.7.4-.9.4-.5-.1.4-.4.3-1.4-.3-2.2-.7-.8-.8-1.3-.1-1.3.5 0 1.2.7 1.5 1.5zm5 6.2c-.3.7-.9 1-1.4.7-1.4-.8-1.1-2.1.5-2.1.8 0 1.2.6.9 1.4zm-84 12.8c-.3.9-.8 1.4-1 1.1-.3-.3-.2-.9.2-1.5.9-1.6 1.5-1.3.8.4z"/><path d="M566.8 196.5c-.2.2-1.9.7-3.7 1-4.3.7-5.3 1.4-4.5 2.7.5.7.2.8-.6.3-2.2-1.4-11.3-.6-15 1.3-4.7 2.3-4.6 2.2-3.1 3.1 1 .6.5 1.1-1.8 1.6-3.8.8-5.1 2.5-1.9 2.5 1.7 0 1.9.3.9.9-1.9 1.2.2 2.3 5.2 2.5 3.1.2 4.5.9 6.3 3.2 1.3 1.6 2.2 3.5 1.9 4.1-.2.7.3 1.3 1.3 1.4 1 0 1.2.3.5.6-2.1.8-1.5 2.6.7 2 2.4-.6 2.5-.3.4 1.7-3.1 3.1.7 10.9 5.9 12.1 2.1.6 2.7.4 2.7-.9 0-2.3 2.9-6.6 4.5-6.6.7 0 2.3-.8 3.6-1.9 1.3-1 3.9-2.2 5.6-2.5 3.5-.8 5.5-2.6 2.8-2.6-.9 0-1.4-.4-1.1-.9.3-.5 1.6-.7 2.9-.4 2 .4 2 .3.4-.7-1.8-1.1-1.8-1.3.3-3.2 1.5-1.4 2-2.9 1.7-4.4-.2-1.3-.1-2.4.2-2.4.4 0 .7-1.2.6-2.7 0-2 .9-3.3 3.4-5 2.9-2 2.9-2.5.1-2.5-.3-.1-2 .2-3.8.6-2.4.4-3.1.2-2.6-.6s.2-.9-.9-.5c-.9.3-2.7.2-3.9-.3-2.1-.9-2.1-1-.3-.9 1.1.1 3.1 0 4.5 0l2.5-.2-2.5-1c-2.6-1.1-12.5-2.1-13.2-1.4zM622 209.1c0 .5.5.7 1 .4.6-.3 1-.8 1-1.1 0-.2-.4-.4-1-.4-.5 0-1 .5-1 1.1zM527.8 217.7c.7.3 1.6.2 1.9-.1.4-.3-.2-.6-1.3-.5-1.1 0-1.4.3-.6.6zM579.8 229.8c.7.2 1.2 1 1.2 1.8 0 1.5 4.6 1.9 6.7.6 2.1-1.4-.1-2.7-4.6-2.8-2.4 0-3.9.2-3.3.4zM521.5 232c-.7 1.2-.8 1.1 2.8 1.4 2.5.2 2.7 0 1.1-1.1-2.1-1.6-3.1-1.6-3.9-.3zM596.8 241.8c-.3 1.2 0 2.6.7 3.2 1 .8 1.1 1.8.5 3.6-.9 2.3-.8 2.4 1.7 2.1 3.2-.4 3.9-1.9 2-3.9-.8-.7-2.1-2.6-2.9-4.2-1.4-2.7-1.5-2.7-2-.8zM594.3 245.7c-.7.2-1.3 1.4-1.3 2.6 0 1.6.3 1.8 1.2.9.9-.9 2.2-4.5 1.5-4.1-.1 0-.8.3-1.4.6zM547.6 252.6c-.3.9-.6 1.6-.6 1.7 0 .1 1.4.3 3 .4 3.2.2 3.2-1 0-2.7-1.3-.7-1.9-.6-2.4.6zM526.1 281.4c.2.2 1.5.9 2.9 1.6 2.3 1.2 2.4 1.2 1.1-.3-.7-1-2-1.7-2.9-1.7-.8 0-1.3.2-1.1.4zM534.8 284.7c.7.3 1.6.2 1.9-.1.4-.3-.2-.6-1.3-.5-1.1 0-1.4.3-.6.6z"/></svg>